<svg width="200" height="56" viewBox="0 0 200 56" fill="none" xmlns="http://www.w3.org/2000/svg">
<path d="M46.5222 34.4182C45.5167 36.3305 44.5113 38.2405 43.5059 40.1528C42.5027 42.0605 41.5537 43.9975 40.4918 45.8783C39.3734 47.858 36.8632 48.5793 34.8545 47.4962C32.8459 46.4131 32.0845 43.9278 33.1442 41.9145C34.1496 40.0022 35.155 38.0922 36.1605 36.1799C37.1637 34.2722 38.1126 32.3352 39.1745 30.4544C40.293 28.4747 42.8032 27.7534 44.8118 28.8365C46.8204 29.9196 47.5818 32.4048 46.5222 34.4182Z" fill="#0098A8"/>
<path d="M51.1574 25.2769C52.2371 23.2834 51.4963 20.7921 49.5028 19.7124C47.5093 18.6327 45.018 19.3735 43.9383 21.367C42.8586 23.3605 43.5994 25.8518 45.5929 26.9315C47.5864 28.0112 50.0777 27.2704 51.1574 25.2769Z" fill="white"/>
<path d="M62.0547 31.0408C61.8581 31.4197 61.6593 31.7985 61.4627 32.1752C61.1336 32.8066 60.6852 33.3538 60.6013 34.1248C60.4886 35.1528 61.1667 36.0944 62.174 36.3115C63.2673 36.5485 64.0139 35.9725 64.491 35.0553C64.8754 34.3175 65.2597 33.5798 65.6462 32.842C65.6727 32.7911 65.7766 32.5917 65.7235 32.6914C65.6948 32.7468 65.6661 32.7999 65.6374 32.8553C65.5071 33.1057 65.7788 32.6094 65.8583 32.492C65.993 32.2948 66.141 32.1109 66.3067 31.9403C68.4426 29.7359 72.138 30.58 73.1121 33.4934C73.7549 35.4186 72.8691 36.6748 72.0761 38.1946C71.2942 39.6923 70.5145 41.19 69.7326 42.6877C69.2047 43.7024 68.6745 44.7148 68.1466 45.7295C67.3625 47.2316 65.8539 48.1289 64.1487 47.9849C61.7653 47.7855 60.0689 45.601 60.4577 43.2349C60.6432 42.1028 61.2683 41.2365 61.7675 40.275C62.3153 39.2182 61.836 37.9177 60.7338 37.4746C59.2782 36.8897 58.5139 37.8202 57.9087 38.9811C57.4206 39.9183 56.9302 40.8555 56.442 41.7948C55.9539 42.732 55.4635 43.6691 54.9754 44.6085C54.4386 45.6365 54.0101 46.6312 52.9344 47.3025C50.9398 48.5499 48.3224 47.8631 47.1892 45.7982C45.8485 43.3479 47.3947 41.4536 48.3886 39.5505C50.4517 35.5937 52.5147 31.639 54.5778 27.6821C55.0814 26.7162 55.6204 25.9474 56.6541 25.4489C57.8314 24.8795 58.8055 24.8529 60.0115 25.3625C62.2181 26.2908 63.1591 28.9139 62.0503 31.0408H62.0547Z" fill="#0098A8"/>
<path d="M12.7224 45.8079C16.7358 38.1552 20.7514 30.5002 24.7649 22.8474C25.2804 21.8654 26.495 21.4859 27.4796 22C28.4641 22.5142 28.8447 23.7257 28.3292 24.7076C27.9088 25.5087 27.4884 26.3075 27.0703 27.1085C26.0216 29.1055 26.7959 31.5726 28.8004 32.6186C30.8027 33.6646 33.2763 32.8922 34.325 30.893C35.6148 28.4325 36.9069 25.9699 38.199 23.5094C39.2477 21.5123 38.4734 19.0453 36.4689 17.9993C34.4644 16.9533 31.993 17.7257 30.9443 19.7249C30.4288 20.7069 29.2142 21.0865 28.2296 20.5723C27.245 20.0581 26.8645 18.8467 27.38 17.8647C28.0592 16.5694 28.7407 15.2718 29.4199 13.9765C30.4686 11.9795 29.6943 9.5124 27.6898 8.46643C25.6853 7.42046 23.2139 8.1928 22.1652 10.1921C16.5986 20.8018 11.0342 31.4137 5.46765 42.0235C4.41894 44.0205 5.1933 46.4876 7.19781 47.5336C9.2001 48.5795 11.6736 47.8072 12.7224 45.8079Z" fill="#0098A8"/>
<path d="M27.5197 35.1428C25.5638 34.0758 23.1477 34.8637 22.1233 36.9033C21.0989 38.9406 21.8553 41.4574 23.8133 42.5245C25.7692 43.5916 28.1853 42.8036 29.2097 40.7641C30.2341 38.7267 29.4777 36.2099 27.5197 35.1428Z" fill="white"/>
<path d="M157.252 31.5811H153.438L145.878 47.5011H150.212L151.635 44.1111H158.605L160.052 47.5011H164.465L157.248 31.5811H157.252ZM152.998 40.9277L155.055 36.0011L157.185 40.9277H152.995H152.998Z" fill="white"/>
<path d="M87.6483 41.0311H96.3783V37.8477H87.6483V34.7677H97.1983V31.5811H83.6416V47.5011H87.6483V41.0311Z" fill="white"/>
<path d="M103.672 31.5811H99.665V47.5011H103.672V31.5811Z" fill="white"/>
<path d="M110.962 36.1677L118.968 47.5011H123.798V31.5811H119.998V42.8077L112.055 31.5811H107.162V47.5011H110.962V36.1677Z" fill="white"/>
<path d="M144.955 47.5005V38.7705H137.148V41.9538H140.742C140.372 42.7538 139.778 43.3805 138.958 43.8372C138.138 44.2938 137.188 44.5205 136.105 44.5205C134.515 44.5205 133.265 44.0772 132.355 43.1905C131.442 42.3038 130.988 41.0905 130.988 39.5505C130.988 38.0105 131.445 36.7805 132.355 35.8938C133.268 35.0038 134.512 34.5605 136.085 34.5605C137.248 34.5605 138.208 34.7638 138.965 35.1738C139.722 35.5838 140.278 36.2005 140.642 37.0238H144.955C144.718 35.3105 143.788 33.9272 142.162 32.8638C140.535 31.8038 138.502 31.2705 136.062 31.2705C133.172 31.2705 130.868 32.0205 129.148 33.5205C127.428 35.0205 126.568 37.0272 126.568 39.5405C126.568 40.8938 126.812 42.0872 127.302 43.1238C127.792 44.1605 128.535 45.0705 129.528 45.8472C130.335 46.4705 131.288 46.9538 132.382 47.2938C133.475 47.6338 134.635 47.8038 135.858 47.8038C137.082 47.8038 138.168 47.6238 139.135 47.2638C140.102 46.9038 140.968 46.3605 141.725 45.6372C141.798 46.2572 141.875 46.8772 141.948 47.4938H144.948L144.955 47.5005Z" fill="white"/>
<path d="M178.438 31.5811H163.648V34.7677H169.092V47.5011H172.995V34.7677H178.438V31.5811Z" fill="white"/>
<path d="M194.152 44.1111H184.085V40.7244H193.022V37.5377H184.085V34.7677H194.152V31.5811H180.082V47.5011H194.152V44.1111Z" fill="white"/>
</svg>
