<svg width="54" height="32" viewBox="0 0 54 32" fill="none" xmlns="http://www.w3.org/2000/svg">
<path d="M32.4887 20.6707C31.702 22.1669 30.9153 23.6614 30.1286 25.1576C29.3437 26.6503 28.6012 28.1658 27.7703 29.6374C26.8952 31.1864 24.9311 31.7508 23.3595 30.9033C21.7878 30.0559 21.1921 28.1113 22.0212 26.536C22.8079 25.0398 23.5946 23.5453 24.3813 22.0491C25.1662 20.5564 25.9087 19.0408 26.7396 17.5692C27.6147 16.0203 29.5788 15.4559 31.1504 16.3033C32.7221 17.1508 33.3178 19.0953 32.4887 20.6707Z" fill="#0098A8"/>
<path d="M36.1156 13.5179C36.9604 11.9582 36.3808 10.0089 34.821 9.16412C33.2612 8.31935 31.3119 8.89897 30.4671 10.4587C29.6223 12.0185 30.202 13.9678 31.7617 14.8126C33.3215 15.6573 35.2708 15.0777 36.1156 13.5179Z" fill="white"/>
<path d="M44.6419 18.0282C44.4881 18.3246 44.3325 18.621 44.1787 18.9157C43.9212 19.4097 43.5704 19.8379 43.5047 20.4412C43.4165 21.2455 43.9471 21.9822 44.7352 22.1521C45.5907 22.3376 46.1749 21.8869 46.5482 21.1692C46.8489 20.592 47.1496 20.0147 47.4521 19.4375C47.4728 19.3976 47.554 19.2416 47.5126 19.3196C47.4901 19.3629 47.4676 19.4045 47.4452 19.4479C47.3432 19.6438 47.5558 19.2555 47.618 19.1636C47.7234 19.0093 47.8392 18.8654 47.9688 18.732C49.6401 17.0072 52.5315 17.6676 53.2936 19.9471C53.7966 21.4535 53.1035 22.4364 52.4831 23.6256C51.8713 24.7974 51.2612 25.9692 50.6494 27.141C50.2363 27.935 49.8215 28.7272 49.4085 29.5211C48.7949 30.6964 47.6145 31.3984 46.2803 31.2858C44.4155 31.1298 43.0882 29.4206 43.3923 27.5692C43.5375 26.6834 44.0266 26.0056 44.4172 25.2533C44.8458 24.4264 44.4708 23.4089 43.6084 23.0622C42.4694 22.6045 41.8715 23.3326 41.3979 24.2409C41.016 24.9742 40.6323 25.7075 40.2503 26.4424C39.8684 27.1757 39.4847 27.909 39.1028 28.644C38.6828 29.4483 38.3475 30.2266 37.5058 30.7519C35.9452 31.7278 33.8972 31.1904 33.0106 29.5748C31.9615 27.6576 33.1713 26.1755 33.949 24.6864C35.5632 21.5905 37.1775 18.4962 38.7917 15.4002C39.1857 14.6444 39.6074 14.0429 40.4162 13.6529C41.3374 13.2074 42.0996 13.1866 43.0432 13.5853C44.7698 14.3116 45.506 16.364 44.6384 18.0282H44.6419Z" fill="#0098A8"/>
<path d="M6.04228 29.5821C9.18255 23.5944 12.3246 17.6049 15.4648 11.6171C15.8682 10.8487 16.8186 10.5518 17.5889 10.9541C18.3593 11.3564 18.657 12.3043 18.2537 13.0726C17.9248 13.6993 17.5958 14.3244 17.2687 14.9511C16.4481 16.5137 17.054 18.444 18.6224 19.2624C20.1891 20.0808 22.1245 19.4765 22.945 17.9122C23.9543 15.987 24.9653 14.0602 25.9762 12.135C26.7968 10.5725 26.1909 8.64218 24.6225 7.82378C23.0541 7.00538 21.1204 7.60968 20.2999 9.17396C19.8965 9.94229 18.9461 10.2393 18.1758 9.83697C17.4054 9.43468 17.1077 8.48678 17.511 7.71845C18.0425 6.70495 18.5757 5.68972 19.1071 4.67622C19.9277 3.11366 19.3218 1.18335 17.7534 0.364947C16.185 -0.453452 14.2513 0.150851 13.4307 1.71513C9.07522 10.0165 4.72143 18.3197 0.365909 26.6211C-0.454647 28.1836 0.151249 30.1139 1.71965 30.9323C3.28632 31.7507 5.22173 31.1464 6.04228 29.5821Z" fill="#0098A8"/>
<path d="M17.6208 21.2378C16.0905 20.4029 14.2 21.0194 13.3984 22.6152C12.5969 24.2093 13.1888 26.1785 14.7208 27.0134C16.2511 27.8483 18.1416 27.2319 18.9431 25.636C19.7446 24.0419 19.1528 22.0727 17.6208 21.2378Z" fill="white"/>
</svg>
