<svg width="64" height="64" viewBox="0 0 64 64" fill="none" xmlns="http://www.w3.org/2000/svg">
<path d="M52.411 22.8265H26.0509C22.4115 22.8265 19.4609 25.8334 19.4609 29.5427V42.9749C19.4609 46.6842 22.4115 49.6911 26.0509 49.6911H34.2885L39.231 58.1602L44.1735 49.6911H52.411C56.0505 49.6911 59.001 46.6842 59.001 42.9749V29.5427C59.001 25.8334 56.0505 22.8265 52.411 22.8265Z" fill="#12A2B8"/>
<path d="M45.54 22.3002V12.5204C45.54 8.91955 42.5896 6.00048 38.95 6.00048H12.59C8.95057 6.00048 6 8.91955 6 12.5204V25.5602C6 29.161 8.95057 32.0801 12.59 32.0801H19.18" stroke="white" stroke-width="2.4" stroke-miterlimit="10"/>
<path d="M32.8477 42.7285H30L34.4121 30.002H37.8047L42.1992 42.7285H39.3691L38.4199 39.793H33.8145L32.8477 42.7285ZM34.4824 37.7363H37.752L36.1523 32.8672H36.0645L34.4824 37.7363Z" fill="white"/>
<path d="M46.2773 30.002V42.7285H43.6406V30.002H46.2773Z" fill="white"/>
</svg>
