<svg width="64" height="64" viewBox="0 0 64 64" fill="none" xmlns="http://www.w3.org/2000/svg">
<g clip-path="url(#clip0_627_13556)">
<path d="M41.8294 52.7218C50.2664 44.2848 50.2664 30.6058 41.8294 22.1688C33.3924 13.7319 19.7134 13.7319 11.2765 22.1688C2.83951 30.6058 2.83951 44.2848 11.2765 52.7218C19.7134 61.1587 33.3924 61.1587 41.8294 52.7218Z" stroke="white" stroke-width="2.4" stroke-miterlimit="2.6131"/>
<path d="M34.192 45.0835C38.4105 40.8651 38.4105 34.0256 34.192 29.8071C29.9736 25.5886 23.1341 25.5886 18.9156 29.8071C14.6971 34.0256 14.6971 40.8651 18.9156 45.0835C23.1341 49.302 29.9736 49.302 34.192 45.0835Z" stroke="#12A2B8" stroke-width="2.4" stroke-miterlimit="2.6131"/>
<path d="M45.4214 18.5781L26.8418 37.1578" stroke="white" stroke-width="2.4" stroke-miterlimit="2.6131"/>
<path d="M53.8177 0L41.9375 11.8802L44.0894 19.9113L52.1205 22.0633L64.0008 10.1831L55.9697 8.03109L53.8177 0Z" fill="#12A2B8"/>
</g>
<defs>
<clipPath id="clip0_627_13556">
<rect width="64" height="64" fill="white"/>
</clipPath>
</defs>
</svg>
