<svg width="49" height="48" viewBox="0 0 49 48" fill="none" xmlns="http://www.w3.org/2000/svg">
<path d="M40.6667 19.5567C40.6667 10.3807 33.4155 2.92399 24.5312 3.00058C15.889 3.07509 8.8157 10.3287 8.6691 19.2705C8.58127 24.6255 10.9642 29.419 14.7134 32.5099C16.9701 34.3703 18.3153 37.168 18.3153 40.1536V45H31.0181V40.1832C31.0181 37.1878 32.3593 34.3745 34.6229 32.5076C38.3036 29.4718 40.6667 24.7947 40.6667 19.5567Z" stroke="white" stroke-width="2" stroke-miterlimit="10"/>
<path d="M18.2839 39.3711H31.0453" stroke="white" stroke-width="2" stroke-miterlimit="10"/>
<path d="M32.3202 19.624C32.3202 19.0848 32.2679 18.5583 32.1687 18.0493L34.4248 16.7014L31.9918 12.3405L29.7341 13.6893C28.975 12.9949 28.0457 12.4536 27.0636 12.1131V9.41797H22.2339V12.1131C21.2517 12.4536 20.3588 12.9948 19.5998 13.6893L17.3421 12.3405L14.909 16.7014L17.1651 18.0493C17.0659 18.5582 17.0136 19.0848 17.0136 19.624C17.0136 20.1632 17.0659 20.6897 17.1651 21.1986L14.9089 22.5465L17.342 26.9074L19.5997 25.5586C20.3587 26.2531 21.2517 26.7943 22.2338 27.1347V29.8299H27.0635V27.1347C28.0457 26.7942 28.975 26.2531 29.734 25.5586L31.9917 26.9074L34.4248 22.5465L32.1686 21.1986C32.2679 20.6897 32.3202 20.1632 32.3202 19.624Z" stroke="#12A2B8" stroke-width="2" stroke-miterlimit="10"/>
<path d="M24.6672 22.2677C26.0792 22.2677 27.2238 21.0832 27.2238 19.6221C27.2238 18.161 26.0792 16.9766 24.6672 16.9766C23.2552 16.9766 22.1106 18.161 22.1106 19.6221C22.1106 21.0832 23.2552 22.2677 24.6672 22.2677Z" stroke="#12A2B8" stroke-width="2" stroke-miterlimit="10"/>
</svg>
