<svg width="49" height="48" viewBox="0 0 49 48" fill="none" xmlns="http://www.w3.org/2000/svg">
<path d="M45.3333 32.2871C45.3333 33.3917 44.4378 34.2871 43.3333 34.2871H5.33325C4.22868 34.2871 3.33325 33.3917 3.33325 32.2871V7.99903C3.33325 6.89446 4.22868 5.99903 5.33325 5.99903H43.3333C44.4378 5.99903 45.3333 6.89446 45.3333 7.99903V32.2871Z" stroke="white" stroke-width="2" stroke-miterlimit="10"/>
<path d="M20.0916 42V34.289" stroke="white" stroke-width="2" stroke-miterlimit="10"/>
<path d="M28.5754 34.289V42" stroke="white" stroke-width="2" stroke-miterlimit="10"/>
<path d="M13.8381 42H34.828" stroke="white" stroke-width="2" stroke-miterlimit="10"/>
<path d="M30.1394 20.1445C30.1394 23.3989 27.5397 26.0371 24.333 26.0371C21.1262 26.0371 18.5266 23.3989 18.5266 20.1445C18.5266 16.8901 21.1262 14.2519 24.333 14.2519C27.5397 14.2519 30.1394 16.8901 30.1394 20.1445Z" stroke="#12A2B8" stroke-width="2" stroke-miterlimit="10"/>
<path d="M24.3333 10.3695V14.25" stroke="#12A2B8" stroke-width="2" stroke-miterlimit="10"/>
<path d="M14.7034 20.1426H18.527" stroke="#12A2B8" stroke-width="2" stroke-miterlimit="10"/>
<path d="M29.7034 20.1426H33.527" stroke="#12A2B8" stroke-width="2" stroke-miterlimit="10"/>
<path d="M24.3333 29.916V26.0355" stroke="#12A2B8" stroke-width="2" stroke-miterlimit="10"/>
<path d="M17.5242 13.2366L20.2279 15.9805" stroke="#12A2B8" stroke-width="2" stroke-miterlimit="10"/>
<path d="M17.5242 27.0547L20.2279 24.3108" stroke="#12A2B8" stroke-width="2" stroke-miterlimit="10"/>
<path d="M31.143 27.0547L28.4392 24.3108" stroke="#12A2B8" stroke-width="2" stroke-miterlimit="10"/>
<path d="M31.143 13.2366L28.4392 15.9805" stroke="#12A2B8" stroke-width="2" stroke-miterlimit="10"/>
</svg>
