<svg width="49" height="48" viewBox="0 0 49 48" fill="none" xmlns="http://www.w3.org/2000/svg">
<path d="M33.527 28.2151C34.3601 26.8703 34.9843 25.3863 35.3535 23.8005H38.368V17.0634H35.3535C34.9818 15.4669 34.3519 13.9733 33.5103 12.6214L35.6444 10.4873L30.879 5.72221L28.7449 7.85621C27.3929 7.01462 25.8993 6.38476 24.3027 6.01299V2.9987H17.5653V6.01299C15.9687 6.38476 14.475 7.01462 13.123 7.85621L10.9889 5.72221L6.22363 10.4873L8.35772 12.6214C7.5161 13.9733 6.8862 15.4669 6.51442 17.0634H3.5V23.8005H6.51442C6.8862 25.397 7.5161 26.8906 8.35772 28.2425L6.22363 30.3766L10.989 35.1417L13.1231 33.0077C14.475 33.8493 15.9687 34.4792 17.5653 34.8509V37.8652H24.3027V34.8509C25.8886 34.4817 27.3727 33.8574 28.7175 33.0245M20.934 29.1486C16.1198 29.1486 12.217 25.2461 12.217 20.432C12.217 15.6179 16.1197 11.7153 20.934 11.7153C25.7482 11.7153 29.651 15.6179 29.651 20.432C29.651 25.2461 25.7483 29.1486 20.934 29.1486Z" stroke="white" stroke-width="2" stroke-miterlimit="10" stroke-linecap="round" stroke-linejoin="round"/>
<path d="M28.0659 36.2814C28.0659 31.4673 31.9686 27.5648 36.7829 27.5648C41.5972 27.5648 45.4999 31.4673 45.4999 36.2814C45.4999 41.0955 41.5972 44.998 36.7829 44.998C31.9686 44.998 28.0659 41.0955 28.0659 36.2814Z" stroke="#12A2B8" stroke-width="2" stroke-miterlimit="10" stroke-linecap="round" stroke-linejoin="round"/>
<path d="M33.6133 36.2804L35.4623 37.8652L39.1605 34.6955" stroke="#12A2B8" stroke-width="2" stroke-miterlimit="10" stroke-linecap="round" stroke-linejoin="round"/>
</svg>
