<svg width="49" height="48" viewBox="0 0 49 48" fill="none" xmlns="http://www.w3.org/2000/svg">
<path d="M8.40112 10.9785H10.8907" stroke="white" stroke-width="2" stroke-miterlimit="10"/>
<path d="M13.3804 10.9785H15.87" stroke="white" stroke-width="2" stroke-miterlimit="10"/>
<path d="M18.3596 10.9785H20.8492" stroke="white" stroke-width="2" stroke-miterlimit="10"/>
<path d="M4.66675 15.959H44.6667" stroke="white" stroke-width="2" stroke-miterlimit="10"/>
<path d="M16.396 36.9491H5.66675C5.11446 36.9491 4.66675 36.5014 4.66675 35.9491V7C4.66675 6.44772 5.11446 6 5.66675 6H43.6668C44.219 6 44.6667 6.44772 44.6667 7V35.9491C44.6667 36.5014 44.219 36.9491 43.6667 36.9491H32.9375" stroke="white" stroke-width="2" stroke-miterlimit="10"/>
<path d="M24.6667 41.2202C30.2676 41.2202 34.808 36.6797 34.808 31.0788C34.808 25.4779 30.2676 20.9375 24.6667 20.9375C19.0658 20.9375 14.5254 25.4779 14.5254 31.0788C14.5254 36.6797 19.0658 41.2202 24.6667 41.2202Z" stroke="#12A2B8" stroke-width="2" stroke-miterlimit="10"/>
<path d="M24.6668 41.2202C26.5337 41.2202 28.0472 36.6797 28.0472 31.0788C28.0472 25.4779 26.5337 20.9375 24.6668 20.9375C22.7998 20.9375 21.2864 25.4779 21.2864 31.0788C21.2864 36.6797 22.7998 41.2202 24.6668 41.2202Z" stroke="#12A2B8" stroke-width="2" stroke-miterlimit="10"/>
<path d="M15.1025 27.6992H34.2308" stroke="#12A2B8" stroke-width="2" stroke-miterlimit="10"/>
<path d="M15.1025 34.4609H34.2308" stroke="#12A2B8" stroke-width="2" stroke-miterlimit="10"/>
</svg>
