<svg width="48" height="48" viewBox="0 0 48 48" fill="none" xmlns="http://www.w3.org/2000/svg">
<path d="M19.2733 6.48633H9C8.44772 6.48633 8 6.93404 8 7.48633V44.0003C8 44.5526 8.44772 45.0003 9 45.0003H39C39.5523 45.0003 40 44.5526 40 44.0003V7.48633C40 6.93404 39.5523 6.48633 39 6.48633H28.7268" stroke="white" stroke-width="2" stroke-miterlimit="10"/>
<path d="M26.5748 6.48543V5.61407C26.5748 4.17032 25.422 3 24 3C22.5779 3 21.4252 4.17032 21.4252 5.61407V6.48543H19.0759V11.7136H28.924V6.48543H26.5748Z" stroke="white" stroke-width="2" stroke-miterlimit="10"/>
<path d="M8 11.7129H40" stroke="white" stroke-width="2" stroke-miterlimit="10"/>
<path d="M11.9375 19.9551H23C23.5523 19.9551 24 20.4028 24 20.9551V35.7568C24 36.309 24.4477 36.7568 25 36.7568H34.3558" stroke="#12A2B8" stroke-width="2" stroke-miterlimit="10"/>
<path d="M30.7146 33.0605L33.6647 36.0556C34.0481 36.4449 34.0481 37.0698 33.6647 37.4591L30.7146 40.4543" stroke="#12A2B8" stroke-width="2" stroke-miterlimit="10"/>
<path d="M32.2757 22.1695C33.6977 22.1695 34.8505 20.9992 34.8505 19.5555C34.8505 18.1118 33.6977 16.9414 32.2757 16.9414C30.8537 16.9414 29.7009 18.1118 29.7009 19.5555C29.7009 20.9992 30.8537 22.1695 32.2757 22.1695Z" stroke="#12A2B8" stroke-width="2" stroke-miterlimit="10"/>
<path d="M15.7242 39.7711C17.1462 39.7711 18.2989 38.6008 18.2989 37.157C18.2989 35.7133 17.1462 34.543 15.7242 34.543C14.3022 34.543 13.1494 35.7133 13.1494 37.157C13.1494 38.6008 14.3022 39.7711 15.7242 39.7711Z" stroke="#12A2B8" stroke-width="2" stroke-miterlimit="10"/>
</svg>
