<svg width="49" height="48" viewBox="0 0 49 48" fill="none" xmlns="http://www.w3.org/2000/svg">
<path d="M18.1409 19.8077C21.6777 19.8077 24.5448 16.9406 24.5448 13.4038C24.5448 9.8671 21.6777 7 18.1409 7C14.6042 7 11.7371 9.8671 11.7371 13.4038C11.7371 16.9406 14.6042 19.8077 18.1409 19.8077Z" stroke="white" stroke-width="2" stroke-linecap="round" stroke-linejoin="round"/>
<path d="M30.9486 41.1538H5.33325V38.3077C5.33325 34.9109 6.68263 31.6532 9.08454 29.2513C11.4864 26.8494 14.7441 25.5 18.1409 25.5C21.5378 25.5 24.7954 26.8494 27.1974 29.2513C29.5993 31.6532 30.9486 34.9109 30.9486 38.3077V41.1538Z" stroke="white" stroke-width="2" stroke-linecap="round" stroke-linejoin="round"/>
<path d="M29.5256 7C31.224 7 32.8529 7.67469 34.0538 8.87564C35.2548 10.0766 35.9295 11.7054 35.9295 13.4038C35.9295 15.1023 35.2548 16.7311 34.0538 17.932C32.8529 19.133 31.224 19.8077 29.5256 19.8077" stroke="#12A2B8" stroke-width="2" stroke-linecap="round" stroke-linejoin="round"/>
<path d="M34.0796 26.0391C36.504 26.9614 38.5913 28.5981 40.0652 30.7326C41.539 32.8672 42.33 35.399 42.3334 37.9929V41.1521H38.0642" stroke="#12A2B8" stroke-width="2" stroke-linecap="round" stroke-linejoin="round"/>
</svg>
