<svg width="49" height="48" viewBox="0 0 49 48" fill="none" xmlns="http://www.w3.org/2000/svg">
<path d="M14.1526 42.8418H10.9768C9.52453 42.8418 8.34717 41.6644 8.34717 40.2121V31.4635C8.34717 30.0112 9.52453 28.8339 10.9768 28.8339H14.1526C14.9161 28.8339 15.5349 29.4527 15.5349 30.2162V41.4595C15.5349 42.2229 14.9161 42.8418 14.1526 42.8418Z" stroke="white" stroke-width="2" stroke-miterlimit="10" stroke-linecap="round" stroke-linejoin="round"/>
<path d="M8.34738 40.7051H6.94971C4.74432 40.7051 2.95654 38.9173 2.95654 36.7119V34.9639C2.95654 32.7585 4.74432 30.9707 6.94971 30.9707H8.34738V40.7051Z" stroke="white" stroke-width="2" stroke-miterlimit="10" stroke-linecap="round" stroke-linejoin="round"/>
<path d="M35.0664 42.8418H38.2422C39.6945 42.8418 40.8719 41.6644 40.8719 40.2121V31.4635C40.8719 30.0112 39.6945 28.8339 38.2422 28.8339H35.0664C34.3029 28.8339 33.6841 29.4527 33.6841 30.2162V41.4595C33.6841 42.2229 34.3029 42.8418 35.0664 42.8418Z" stroke="white" stroke-width="2" stroke-miterlimit="10" stroke-linecap="round" stroke-linejoin="round"/>
<path d="M40.8721 40.7051H42.2697C44.4751 40.7051 46.2629 38.9173 46.2629 36.7119V34.9639C46.2629 32.7585 44.4751 30.9707 42.2697 30.9707H40.8721V40.7051Z" stroke="white" stroke-width="2" stroke-miterlimit="10" stroke-linecap="round" stroke-linejoin="round"/>
<path d="M8.34717 29.623V22.5062C8.34717 15.1127 14.3409 9.119 21.7344 9.119H22.3157" stroke="white" stroke-width="2" stroke-miterlimit="10" stroke-linecap="round" stroke-linejoin="round"/>
<path d="M40.8721 29.623V22.5457" stroke="white" stroke-width="2" stroke-miterlimit="10" stroke-linecap="round" stroke-linejoin="round"/>
<path d="M46.3334 5.82483V17.0143C46.3334 20.0695 43.8566 22.5462 40.8015 22.5462H26.2961C25.7816 22.5462 25.2773 22.6899 24.84 22.9609L21.8435 24.8184V11.3571C21.8435 8.30174 24.3203 5.82483 27.3758 5.82483H46.3334Z" stroke="#12A2B8" stroke-width="2" stroke-miterlimit="10" stroke-linecap="round" stroke-linejoin="round"/>
<path d="M39.628 11.4902H28.5486" stroke="#12A2B8" stroke-width="2" stroke-miterlimit="10" stroke-linecap="round" stroke-linejoin="round"/>
<path d="M39.628 16.8809H28.5486" stroke="#12A2B8" stroke-width="2" stroke-miterlimit="10" stroke-linecap="round" stroke-linejoin="round"/>
</svg>
