<svg width="40" height="40" viewBox="0 0 40 40" fill="none" xmlns="http://www.w3.org/2000/svg">
<path d="M25.9465 13.0626V28.9197C25.9465 29.9711 25.5288 30.9794 24.7854 31.7228C24.0419 32.4663 23.0336 32.8839 21.9822 32.8839H7.11621C8.1676 32.8839 9.17593 32.4663 9.91937 31.7228C10.6628 30.9794 11.0805 29.9711 11.0805 28.9197V11.0805C11.0805 10.0291 11.4981 9.02076 12.2416 8.27732C12.985 7.53387 13.9934 7.11621 15.0447 7.11621H29.4152" stroke="white" stroke-width="2" stroke-linecap="round" stroke-linejoin="round"/>
<path d="M29.415 7.11621C30.335 7.11621 31.2173 7.48167 31.8678 8.13218C32.5183 8.78269 32.8838 9.66498 32.8838 10.5849V12.0715C32.8838 12.3344 32.7793 12.5865 32.5935 12.7723C32.4076 12.9582 32.1555 13.0626 31.8927 13.0626H25.9463V10.5849C25.9463 9.66498 26.3117 8.78269 26.9623 8.13218C27.6128 7.48167 28.4951 7.11621 29.415 7.11621V7.11621Z" stroke="white" stroke-width="2" stroke-linecap="round" stroke-linejoin="round"/>
<path d="M16.146 14.0537H20.9911" stroke="white" stroke-width="2" stroke-linecap="round" stroke-linejoin="round"/>
<path d="M16.0361 20H20.9915" stroke="white" stroke-width="2" stroke-linecap="round" stroke-linejoin="round"/>
<path d="M16.0361 25.9473H20.9915" stroke="white" stroke-width="2" stroke-linecap="round" stroke-linejoin="round"/>
</svg>
