<svg width="40" height="40" viewBox="0 0 40 40" fill="none" xmlns="http://www.w3.org/2000/svg">
<path d="M21.981 32.8746H9.10664C8.58134 32.8746 8.07755 32.6659 7.7061 32.2945C7.33465 31.923 7.12598 31.4193 7.12598 30.894V9.10664C7.12598 8.58134 7.33465 8.07755 7.7061 7.7061C8.07755 7.33465 8.58134 7.12598 9.10664 7.12598H23.9616" stroke="white" stroke-width="2" stroke-linecap="round" stroke-linejoin="round"/>
<path d="M26.9326 13.068L29.9036 7.12598L32.8746 13.068V29.9036C32.8746 30.6916 32.5616 31.4473 32.0044 32.0044C31.4473 32.5616 30.6916 32.8746 29.9036 32.8746C29.1157 32.8746 28.36 32.5616 27.8028 32.0044C27.2456 31.4473 26.9326 30.6916 26.9326 29.9036V13.068Z" stroke="white" stroke-width="2" stroke-linecap="round" stroke-linejoin="round"/>
<path d="M26.9326 24.9521H32.8746" stroke="white" stroke-width="2" stroke-linecap="round" stroke-linejoin="round"/>
<path d="M13.0679 7.12598V32.8746" stroke="white" stroke-width="2" stroke-linecap="round" stroke-linejoin="round"/>
<path d="M18.0195 14.0576H21.9809" stroke="white" stroke-width="2" stroke-linecap="round" stroke-linejoin="round"/>
</svg>
