<svg width="48" height="48" viewBox="0 0 48 48" fill="none" xmlns="http://www.w3.org/2000/svg">
<path d="M7.60156 13.992V6.58954C7.60156 6.03725 8.04928 5.58954 8.60156 5.58954H45.9996C46.5519 5.58954 46.9996 6.03725 46.9996 6.58954V32.5977C46.9996 33.1499 46.5519 33.5977 45.9996 33.5977H41.398" stroke="#12A2B8" stroke-width="2" stroke-miterlimit="10"/>
<path d="M13.2032 30.7968C10.1095 30.7968 7.60156 33.3048 7.60156 36.3984H18.8048C18.8048 33.3048 16.2969 30.7968 13.2032 30.7968Z" stroke="#12A2B8" stroke-width="2" stroke-miterlimit="10"/>
<path d="M17.4044 23.7949C17.4044 26.1152 15.5235 27.9961 13.2032 27.9961C10.8829 27.9961 9.00195 26.1152 9.00195 23.7949C9.00195 21.4746 10.8829 19.5937 13.2032 19.5937C15.5235 19.5937 17.4044 21.4746 17.4044 23.7949Z" stroke="#12A2B8" stroke-width="2" stroke-miterlimit="10"/>
<path d="M23.0059 22.3945H25.8067" stroke="#222222" stroke-width="2" stroke-miterlimit="10"/>
<path d="M23.0059 27.9961H25.8067" stroke="#222222" stroke-width="2" stroke-miterlimit="10"/>
<path d="M23.0059 33.5977H25.8067" stroke="#222222" stroke-width="2" stroke-miterlimit="10"/>
<path d="M28.6074 22.3945H37.1966" stroke="#222222" stroke-width="2" stroke-miterlimit="10"/>
<path d="M28.6074 27.9961H37.1966" stroke="#222222" stroke-width="2" stroke-miterlimit="10"/>
<path d="M28.6074 33.5977H37.1966" stroke="#222222" stroke-width="2" stroke-miterlimit="10"/>
<path d="M41.3981 41C41.3981 41.5523 40.9504 42 40.3981 42H3C2.44772 42 2 41.5523 2 41V14.9919C2 14.4396 2.44772 13.9919 3 13.9919H40.3981C40.9504 13.9919 41.3981 14.4396 41.3981 14.9919V41Z" stroke="#222222" stroke-width="2" stroke-miterlimit="10"/>
</svg>
