<svg width="64" height="64" viewBox="0 0 64 64" fill="none" xmlns="http://www.w3.org/2000/svg">
<path d="M7.47852 53.9368V47.1758H26.0886C29.4379 47.1758 32.153 49.8909 32.153 53.2402M32.153 53.2402V53.9367M32.153 53.2402C32.153 49.8909 34.8682 47.1758 38.2175 47.1758H56.8301V53.9368" stroke="white" stroke-width="2.4" stroke-miterlimit="10"/>
<path d="M59.3097 53.9375H5V60.002H59.3097V53.9375Z" stroke="white" stroke-width="2.4" stroke-miterlimit="10"/>
<path d="M32.1543 53.9375V60.002" stroke="white" stroke-width="2.4" stroke-miterlimit="10"/>
<path d="M41.5744 24.7511C41.5744 19.549 37.3574 15.332 32.1554 15.332C26.9533 15.332 22.7363 19.549 22.7363 24.7511C22.7363 28.5755 25.0157 31.8674 28.2899 33.3429V40.0393H36.0208V33.3429C39.295 31.8674 41.5744 28.5754 41.5744 24.7511Z" fill="#12A2B8"/>
<path d="M32.1543 9.40845V4" stroke="white" stroke-width="2.4" stroke-miterlimit="10"/>
<path d="M38.2637 11.9376L42.088 8.11328" stroke="white" stroke-width="2.4" stroke-miterlimit="10"/>
<path d="M26.047 11.9376L22.2227 8.11328" stroke="white" stroke-width="2.4" stroke-miterlimit="10"/>
</svg>
