<svg width="64" height="64" viewBox="0 0 64 64" fill="none" xmlns="http://www.w3.org/2000/svg">
<path d="M44.2755 52.0352H19.0508" stroke="white" stroke-width="2.4" stroke-miterlimit="10"/>
<path d="M44.4966 43.9568H7C5.89543 43.9568 5 43.0614 5 41.9568V11C5 9.89543 5.89543 9 7 9H56.326C57.4305 9 58.326 9.89543 58.326 11V41.9568C58.326 43.0614 57.4306 43.9568 56.326 43.9568H51.5773" stroke="white" stroke-width="2.4" stroke-miterlimit="10"/>
<path d="M31.6641 51.3688V45.0664" stroke="white" stroke-width="2.4" stroke-miterlimit="10"/>
<path d="M14.957 22.6113V30.1345" stroke="#12A2B8" stroke-width="2.4" stroke-miterlimit="10"/>
<path d="M21.5957 19.7344V30.134" stroke="#12A2B8" stroke-width="2.4" stroke-miterlimit="10"/>
<path d="M28.2344 15.6406V30.1338" stroke="#12A2B8" stroke-width="2.4" stroke-miterlimit="10"/>
<path d="M10.8633 30.6836H32.3264" stroke="white" stroke-width="2.4" stroke-miterlimit="10"/>
<path d="M10.8633 37.3203H32.3264" stroke="white" stroke-width="2.4" stroke-miterlimit="10"/>
<path d="M44.6074 38.4414V51.7073C44.6074 53.5404 46.0934 55.0263 47.9265 55.0263C49.7596 55.0263 51.2455 53.5404 51.2455 51.7073V38.598" stroke="white" stroke-width="2.4" stroke-miterlimit="10"/>
<path d="M47.927 39.645C53.6706 39.645 58.3267 34.989 58.3267 29.2454C58.3267 23.5018 53.6706 18.8457 47.927 18.8457C42.1834 18.8457 37.5273 23.5018 37.5273 29.2454C37.5273 34.989 42.1834 39.645 47.927 39.645Z" fill="#12A2B8"/>
</svg>
