<svg width="64" height="64" viewBox="0 0 64 64" fill="none" xmlns="http://www.w3.org/2000/svg">
<path d="M41.3124 52.1923C41.5743 52.2187 41.84 52.2323 42.1089 52.2323C46.4443 52.2323 49.959 48.7177 49.959 44.3823C49.959 43.9239 49.9174 43.4755 49.842 43.0388C53.8469 40.8888 56.5705 36.6617 56.5705 31.7981C56.5705 26.9345 53.8469 22.7074 49.842 20.5573C49.9174 20.1206 49.959 19.6722 49.959 19.2139C49.959 14.8784 46.4443 11.3638 42.1089 11.3638C41.84 11.3638 41.5743 11.3775 41.3124 11.4038C40.9095 8.90852 38.7473 7.00238 36.1382 7.00238C33.2423 7.00238 30.8945 9.35 30.8945 12.246V51.3501C30.8945 54.2461 33.2423 56.5938 36.1382 56.5938C38.7473 56.5938 40.9095 54.6877 41.3124 52.1923Z" fill="#12A2B8"/>
<path d="M37.2684 21.7396C37.8582 22.5013 38.2093 23.4573 38.2093 24.4952C38.2093 26.9832 36.1923 29 33.7044 29C32.6361 29 31.8257 29 30.8945 29" stroke="white" stroke-width="2.4" stroke-miterlimit="10"/>
<path d="M39.0988 44.3477C39.858 43.3673 40.3098 42.1368 40.3098 40.8009C40.3098 37.5987 37.7139 35.0027 34.5116 35.0027C33.1365 35.0027 31.999 35.1523 30.8945 35.1523" stroke="white" stroke-width="2.4" stroke-miterlimit="10"/>
<path d="M30.8957 35.0529H20.6095L16.682 38.9805H10.9082" stroke="white" stroke-width="2.4" stroke-miterlimit="10"/>
<path d="M30.8952 43.7443H24.9533L21.0257 47.6719H15.252" stroke="white" stroke-width="2.4" stroke-miterlimit="10"/>
<path d="M30.8957 29H20.6095L16.682 25.0724H10.9082" stroke="white" stroke-width="2.4" stroke-miterlimit="10"/>
<path d="M30.8952 19.8477H24.9533L21.0257 15.9201H15.252" stroke="white" stroke-width="2.4" stroke-miterlimit="10"/>
<path d="M7 23.0702V26.1562" stroke="white" stroke-width="2.4" stroke-miterlimit="10"/>
<path d="M7 37.4374V40.5234" stroke="white" stroke-width="2.4" stroke-miterlimit="10"/>
<path d="M11.3438 46.1288V49.2148" stroke="white" stroke-width="2.4" stroke-miterlimit="10"/>
<path d="M11.3438 14.3788V17.4648" stroke="white" stroke-width="2.4" stroke-miterlimit="10"/>
</svg>
