<svg width="64" height="64" viewBox="0 0 64 64" fill="none" xmlns="http://www.w3.org/2000/svg">
<path d="M8 40.1369H17.7627L21.8305 34.0352L25.8983 46.2385L29.9661 40.1369H56" stroke="white" stroke-width="2.4" stroke-miterlimit="10"/>
<path d="M56 51.9322C56 54.1787 54.1787 56 51.9322 56H12.0678C9.82125 56 8 54.1787 8 51.9322V12.0678C8 9.82125 9.82125 8 12.0678 8H51.9322C54.1787 8 56 9.82125 56 12.0678V51.9322Z" stroke="white" stroke-width="2.4" stroke-miterlimit="10"/>
<path d="M13.6953 20.2031H21.8309" stroke="#12A2B8" stroke-width="2.4" stroke-miterlimit="10"/>
<path d="M42.1699 48.2734H50.3055" stroke="#12A2B8" stroke-width="2.4" stroke-miterlimit="10"/>
<path d="M40.1356 18.4754C40.1356 18.4754 41.5024 16.3398 44.2034 16.3398C46.6115 16.3398 48.2712 18.2856 48.2712 20.6183C48.2712 24.2042 44.1463 25.7469 40.1356 30.5771C36.1248 25.7468 32 24.2041 32 20.6183C32 18.2856 33.6597 16.3398 36.0678 16.3398C38.7688 16.3398 40.1356 18.4754 40.1356 18.4754Z" fill="#12A2B8"/>
</svg>
