<svg width="48" height="48" viewBox="0 0 48 48" fill="none" xmlns="http://www.w3.org/2000/svg">
<path d="M5.625 33.1876V11.5625C5.625 10.4579 6.52043 9.5625 7.625 9.5625H40.375C41.4796 9.5625 42.375 10.4579 42.375 11.5625V33.1876" stroke="white" stroke-width="2" stroke-miterlimit="10"/>
<path d="M9.56787 16.125H17.432" stroke="#12A2B8" stroke-width="2" stroke-miterlimit="10"/>
<path d="M9.56787 21.375H38.432" stroke="#12A2B8" stroke-width="2" stroke-miterlimit="10"/>
<path d="M9.56787 26.625H33.182" stroke="#12A2B8" stroke-width="2" stroke-miterlimit="10"/>
<path d="M35.8179 26.625H38.432" stroke="#12A2B8" stroke-width="2" stroke-miterlimit="10"/>
<path d="M42.3754 38.4375H5.62456C4.59957 37.4125 4.02499 36.8378 3 35.8129V33.1875H45V35.8129C43.975 36.8378 43.4004 37.4125 42.3754 38.4375Z" stroke="white" stroke-width="2" stroke-miterlimit="10"/>
<path d="M29.25 33.1875V35.8125C29.25 37.2623 28.0748 38.4375 26.625 38.4375H21.3746C19.925 38.4375 18.75 37.2625 18.75 35.8129V33.1875" stroke="white" stroke-width="2" stroke-miterlimit="10"/>
</svg>
