<svg width="48" height="48" viewBox="0 0 48 48" fill="none" xmlns="http://www.w3.org/2000/svg">
<path d="M33.2852 15.288C37.077 19.0798 37.077 25.2276 33.2852 29.0194C29.4934 32.8112 23.3456 32.8112 19.5538 29.0194C15.762 25.2276 15.762 19.0798 19.5538 15.288C23.3456 11.4962 29.4934 11.4962 33.2852 15.288Z" stroke="white" stroke-width="2" stroke-miterlimit="10"/>
<path d="M34.7851 27.0851L42.8764 35.1764C43.2669 35.5669 43.2669 36.2001 42.8764 36.5906L40.8578 38.6093C40.4673 38.9998 39.8341 38.9998 39.4436 38.6093L31.3523 30.5179" stroke="white" stroke-width="2" stroke-miterlimit="10"/>
<path d="M40.9836 33.285V6C40.9836 5.44771 40.5359 5 39.9836 5H12.855C12.3027 5 11.855 5.44771 11.855 6V36.3036C11.855 36.5688 11.9603 36.8232 12.1479 37.0107L18.8442 43.7071C19.0318 43.8946 19.2861 44 19.5514 44H39.9836C40.5359 44 40.9836 43.5523 40.9836 43V38.4848" stroke="white" stroke-width="2" stroke-miterlimit="10"/>
<path d="M11.855 36.7178H18.1371C18.6894 36.7178 19.1371 37.1656 19.1371 37.7178V44" stroke="white" stroke-width="2" stroke-miterlimit="10"/>
<path d="M19.1372 44H8.00024C7.44796 44 7.00024 43.5523 7.00024 43V6C7.00024 5.44772 7.44796 5 8.00024 5H13.0002" stroke="white" stroke-width="2" stroke-miterlimit="10"/>
<path d="M21.5647 23.3675V25.7949" stroke="#12A2B8" stroke-width="2" stroke-miterlimit="10"/>
<path d="M26.4194 20.9401V25.7949" stroke="#12A2B8" stroke-width="2" stroke-miterlimit="10"/>
<path d="M31.2742 18.5128V25.7949" stroke="#12A2B8" stroke-width="2" stroke-miterlimit="10"/>
</svg>
