<svg width="49" height="48" viewBox="0 0 49 48" fill="none" xmlns="http://www.w3.org/2000/svg">
<path d="M40.0772 27.0696V20.931L35.7427 20.4663C35.5438 19.8423 35.2938 19.241 34.9973 18.6678L37.7339 15.2738L33.3933 10.9331L29.9993 13.6698C29.426 13.3732 28.8248 13.1232 28.2008 12.9243L27.7361 8.58984H21.5975L21.1328 12.9243C20.5088 13.1232 19.9075 13.3732 19.3343 13.6698L15.9403 10.9331L11.5996 15.2738L14.3363 18.6678C14.0397 19.241 13.7897 19.8423 13.5908 20.4663L9.25635 20.931V27.0696L13.5908 27.5343C13.7897 28.1583 14.0397 28.7595 14.3363 29.3328L11.5996 32.7268L15.9403 37.0674L19.3343 34.3308C19.9075 34.6273 20.5088 34.8773 21.1328 35.0762L21.5975 39.4107H27.7361L28.2008 35.0762C28.8248 34.8773 29.426 34.6273 29.9993 34.3308L33.3933 37.0674L37.7339 32.7268L34.9973 29.3328C35.2938 28.7595 35.5438 28.1583 35.7427 27.5343L40.0772 27.0696Z" stroke="#12A2B8" stroke-width="2" stroke-miterlimit="10" stroke-linecap="round" stroke-linejoin="round"/>
<path d="M14.1196 42.1621C17.2191 43.9658 20.8222 44.9993 24.6667 44.9993C28.5112 44.9993 32.1143 43.9658 35.2137 42.1621" stroke="white" stroke-width="2" stroke-miterlimit="10" stroke-linecap="round" stroke-linejoin="round"/>
<path d="M14.1196 5.83718C17.2191 4.03344 20.8222 3 24.6667 3C28.5112 3 32.1143 4.03344 35.2137 5.83718" stroke="white" stroke-width="2" stroke-miterlimit="10" stroke-linecap="round" stroke-linejoin="round"/>
<path d="M42.8296 13.4531C44.6333 16.5526 45.6668 20.1557 45.6668 24.0002C45.6668 27.8447 44.6333 31.4478 42.8296 34.5472" stroke="white" stroke-width="2" stroke-miterlimit="10" stroke-linecap="round" stroke-linejoin="round"/>
<path d="M6.50393 34.5472C4.70019 31.4478 3.66675 27.8447 3.66675 24.0002C3.66675 20.1557 4.70019 16.5526 6.50393 13.4531" stroke="white" stroke-width="2" stroke-miterlimit="10" stroke-linecap="round" stroke-linejoin="round"/>
<path d="M43.0526 8.22822C44.4963 8.22822 45.6667 7.05784 45.6667 5.61411C45.6667 4.17038 44.4963 3 43.0526 3C41.6089 3 40.4385 4.17038 40.4385 5.61411C40.4385 7.05784 41.6089 8.22822 43.0526 8.22822Z" stroke="white" stroke-width="2" stroke-miterlimit="10" stroke-linecap="round" stroke-linejoin="round"/>
<path d="M6.28086 44.9997C7.72459 44.9997 8.89496 43.8293 8.89496 42.3856C8.89496 40.9419 7.72459 39.7715 6.28086 39.7715C4.83712 39.7715 3.66675 40.9419 3.66675 42.3856C3.66675 43.8293 4.83712 44.9997 6.28086 44.9997Z" stroke="white" stroke-width="2" stroke-miterlimit="10" stroke-linecap="round" stroke-linejoin="round"/>
<path d="M43.0526 44.9997C44.4963 44.9997 45.6667 43.8293 45.6667 42.3856C45.6667 40.9419 44.4963 39.7715 43.0526 39.7715C41.6089 39.7715 40.4385 40.9419 40.4385 42.3856C40.4385 43.8293 41.6089 44.9997 43.0526 44.9997Z" stroke="white" stroke-width="2" stroke-miterlimit="10" stroke-linecap="round" stroke-linejoin="round"/>
<path d="M6.28086 8.22822C7.72459 8.22822 8.89496 7.05784 8.89496 5.61411C8.89496 4.17038 7.72459 3 6.28086 3C4.83712 3 3.66675 4.17038 3.66675 5.61411C3.66675 7.05784 4.83712 8.22822 6.28086 8.22822Z" stroke="white" stroke-width="2" stroke-miterlimit="10" stroke-linecap="round" stroke-linejoin="round"/>
<path d="M24.6667 29.2279C27.5542 29.2279 29.8949 26.8872 29.8949 23.9997C29.8949 21.1122 27.5542 18.7715 24.6667 18.7715C21.7792 18.7715 19.4385 21.1122 19.4385 23.9997C19.4385 26.8872 21.7792 29.2279 24.6667 29.2279Z" stroke="#12A2B8" stroke-width="2" stroke-miterlimit="10" stroke-linecap="round" stroke-linejoin="round"/>
</svg>
