<svg width="49" height="48" viewBox="0 0 49 48" fill="none" xmlns="http://www.w3.org/2000/svg">
<path d="M9.625 32.494L3.5 35.5438L24.5 46L45.5 35.5438L39.375 32.494" stroke="white" stroke-width="2" stroke-miterlimit="10" stroke-linecap="round" stroke-linejoin="round"/>
<path d="M9.625 26.3944L3.5 29.4442L24.5 39.9004L45.5 29.4442L39.375 26.3944" stroke="#12A2B8" stroke-width="2" stroke-miterlimit="10" stroke-linecap="round" stroke-linejoin="round"/>
<path d="M14.386 17.9243L3.5 23.3445L24.5 33.8008L45.5 23.3445L34.614 17.9243" stroke="white" stroke-width="2" stroke-miterlimit="10" stroke-linecap="round" stroke-linejoin="round"/>
<path d="M24.4998 17.9413C22.5667 17.9413 20.9998 16.3808 20.9998 14.4559C20.9998 12.5309 22.5667 10.9705 24.4998 10.9705C26.4328 10.9705 27.9998 12.5309 27.9998 14.4559C27.9998 16.3808 26.4328 17.9413 24.4998 17.9413ZM33.2498 14.4559C33.2498 13.806 33.1728 13.175 33.0373 12.5657L34.9055 11.4915L32.2805 6.96398L30.407 8.04106C29.4744 7.18905 28.362 6.52952 27.1248 6.14255V3.99963H21.8748V6.14255C20.6375 6.52952 19.5251 7.18905 18.5925 8.04106L16.719 6.96398L14.094 11.4915L15.9622 12.5657C15.8267 13.175 15.7498 13.806 15.7498 14.4559C15.7498 15.1057 15.8267 15.7368 15.9622 16.346L14.094 17.4202L16.719 21.9478L18.5925 20.8706C19.5251 21.7227 20.6376 22.3822 21.8748 22.7692V24.9121H27.1248V22.7692C28.3619 22.3822 29.4744 21.7227 30.407 20.8706L32.2805 21.9478L34.9055 17.4202L33.0373 16.346C33.1728 15.7368 33.2498 15.1057 33.2498 14.4559Z" stroke="#12A2B8" stroke-width="2" stroke-miterlimit="10" stroke-linecap="round" stroke-linejoin="round"/>
</svg>
