<svg width="64" height="64" viewBox="0 0 64 64" fill="none" xmlns="http://www.w3.org/2000/svg">
<path d="M10.1486 55.9981H41.4113L60.7553 37.0987C62.4148 35.4716 62.4148 32.8337 60.7553 31.2066C59.0959 29.5796 56.4053 29.5796 54.7459 31.2066L46.0625 39.7203H39.5747" stroke="white" stroke-width="2.4" stroke-miterlimit="10"/>
<path d="M22.5328 45.3571H35.5984C37.9452 45.3571 39.8478 43.4918 39.8478 41.1908C39.8478 38.8898 37.9454 37.0244 35.5984 37.0244H20.036C14.5752 37.0244 10.1484 41.3648 10.1484 46.7188" stroke="white" stroke-width="2.4" stroke-miterlimit="10"/>
<path d="M12.4332 39.7217H2V55.9995H10.1485" stroke="white" stroke-width="2.4" stroke-miterlimit="10"/>
<path d="M39.4483 30.7381L32.0001 35.1476L24.5518 30.7381C21.9174 29.1786 20.3073 26.3812 20.3073 23.364V8H43.6926V23.364C43.6927 26.3813 42.0827 29.1786 39.4483 30.7381Z" fill="#12A2B8"/>
<path d="M27.5163 19.024L30.8122 22.2555L36.4622 16.7158" stroke="white" stroke-width="2.4" stroke-miterlimit="10"/>
</svg>
