<svg width="49" height="48" viewBox="0 0 49 48" fill="none" xmlns="http://www.w3.org/2000/svg">
<path d="M8.42308 36.9333C7.64783 36.9333 6.90433 36.6664 6.35615 36.1913C5.80797 35.7162 5.5 35.0719 5.5 34.4V6.53333C5.5 5.86145 5.80797 5.21709 6.35615 4.742C6.90433 4.2669 7.64783 4 8.42308 4H40.5769C41.3522 4 42.0957 4.2669 42.6438 4.742C43.192 5.21709 43.5 5.86145 43.5 6.53333V34.4C43.5 35.0719 43.192 35.7162 42.6438 36.1913C42.0957 36.6664 41.3522 36.9333 40.5769 36.9333" stroke="white" stroke-width="2" stroke-linecap="round" stroke-linejoin="round"/>
<path d="M5.5 11.5996H43.5" stroke="white" stroke-width="2" stroke-linecap="round" stroke-linejoin="round"/>
<path d="M21.4946 24.1688L22.2248 22.2221C22.3479 21.8925 22.5645 21.6089 22.8463 21.4087C23.1281 21.2084 23.4618 21.1007 23.8039 21.0996H25.1962C25.5382 21.1007 25.872 21.2084 26.1538 21.4087C26.4355 21.6089 26.6522 21.8925 26.7753 22.2221L27.5054 24.1688L29.9845 25.6421L31.988 25.3264C32.3217 25.2796 32.6612 25.3363 32.9636 25.4893C33.2659 25.6424 33.5174 25.8848 33.686 26.1858L34.3652 27.4135C34.5392 27.7192 34.6194 28.0723 34.5952 28.4262C34.5709 28.78 34.4434 29.1179 34.2294 29.3953L32.9898 31.0264V33.9728L34.2633 35.6039C34.4773 35.8813 34.6049 36.2192 34.6291 36.573C34.6534 36.9269 34.5732 37.28 34.3992 37.5858L33.72 38.8134C33.5513 39.1144 33.2999 39.3568 32.9975 39.5099C32.6952 39.6629 32.3556 39.7196 32.022 39.6728L30.0184 39.3571L27.5394 40.8304L26.8093 42.7771C26.6861 43.1067 26.4695 43.3903 26.1877 43.5905C25.906 43.7908 25.5722 43.8986 25.2302 43.8996H23.8039C23.4618 43.8986 23.1281 43.7908 22.8463 43.5905C22.5645 43.3903 22.3479 43.1067 22.2248 42.7771L21.4946 40.8304L19.0156 39.3571L17.012 39.6728C16.6784 39.7196 16.3388 39.6629 16.0365 39.5099C15.7342 39.3568 15.4827 39.1144 15.3141 38.8134L14.6349 37.5858C14.4608 37.28 14.3806 36.9269 14.4049 36.573C14.4291 36.2192 14.5567 35.8813 14.7707 35.6039L16.0102 33.9728V31.0264L14.7367 29.3953C14.5227 29.1179 14.3952 28.78 14.3709 28.4262C14.3467 28.0723 14.4269 27.7192 14.6009 27.4135L15.2801 26.1858C15.4487 25.8848 15.7002 25.6424 16.0025 25.4893C16.3049 25.3363 16.6444 25.2796 16.9781 25.3264L18.9817 25.6421L21.4946 24.1688ZM21.1041 32.4996C21.1041 33.1934 21.3033 33.8715 21.6764 34.4484C22.0496 35.0252 22.5799 35.4748 23.2005 35.7403C23.821 36.0058 24.5038 36.0752 25.1625 35.9399C25.8213 35.8046 26.4264 35.4705 26.9013 34.9799C27.3762 34.4894 27.6997 33.8643 27.8307 33.1839C27.9617 32.5035 27.8945 31.7982 27.6375 31.1573C27.3804 30.5163 26.9452 29.9685 26.3867 29.5831C25.8283 29.1976 25.1717 28.9919 24.5 28.9919C23.5994 28.9919 22.7356 29.3615 22.0988 30.0193C21.4619 30.6771 21.1041 31.5693 21.1041 32.4996V32.4996Z" stroke="#12A2B8" stroke-width="2" stroke-linecap="round" stroke-linejoin="round"/>
</svg>
