<svg width="49" height="48" viewBox="0 0 49 48" fill="none" xmlns="http://www.w3.org/2000/svg">
<path d="M34.6667 44C40.1896 44 44.6667 39.5228 44.6667 34C44.6667 28.4772 40.1896 24 34.6667 24C29.1439 24 24.6667 28.4772 24.6667 34C24.6667 39.5228 29.1439 44 34.6667 44Z" stroke="#12A2B8" stroke-width="2" stroke-miterlimit="10"/>
<path d="M44.6667 34H35.6667C35.1145 34 34.6667 33.5523 34.6667 33V24" stroke="#12A2B8" stroke-width="2" stroke-miterlimit="10"/>
<path d="M38.3031 20.7045C38.3031 16.6189 38.3031 10.7307 38.3031 8.40657C38.3031 7.85428 37.8554 7.40909 37.3031 7.40909H18.8081C18.5441 7.40909 18.2907 7.30466 18.1034 7.11859L15.2561 4.2905C15.0687 4.10443 14.8154 4 14.5514 4H5.66675C5.11446 4 4.66675 4.44772 4.66675 5V33C4.66675 33.5523 5.11446 34 5.66675 34H21.4849" stroke="white" stroke-width="2" stroke-miterlimit="10"/>
<path d="M4.66675 14H38.3031" stroke="white" stroke-width="2" stroke-miterlimit="10"/>
</svg>
