<svg width="49" height="48" viewBox="0 0 49 48" fill="none" xmlns="http://www.w3.org/2000/svg">
<path d="M27.8374 37.8542V42.8432C27.8374 44.0294 26.897 45 25.7476 45H10.423C9.27359 45 8.33325 44.0294 8.33325 42.8432V12.5609C8.33325 11.3747 9.27359 10.4041 10.423 10.4041H20.7027" stroke="white" stroke-width="2" stroke-miterlimit="22.926" stroke-linecap="round" stroke-linejoin="round"/>
<path d="M22.9196 3.00129H38.2442C39.3936 3.00129 40.334 3.97189 40.334 5.15808V35.6147C40.334 36.8009 39.3936 37.7715 38.2442 37.7715H22.9196C21.7702 37.7715 20.8298 36.8009 20.8298 35.6147V5.15808C20.8298 3.97189 21.7702 3.00129 22.9196 3.00129Z" stroke="white" stroke-width="2" stroke-miterlimit="22.926" stroke-linecap="round" stroke-linejoin="round"/>
<path d="M21.2654 32.543H39.8407" stroke="white" stroke-width="2" stroke-miterlimit="22.926" stroke-linecap="round" stroke-linejoin="round"/>
<path d="M31.7751 8.64062H34.9642" stroke="#12A2B8" stroke-width="2" stroke-miterlimit="22.926" stroke-linecap="round" stroke-linejoin="round"/>
<path d="M27.8772 8.64062H26.8142" stroke="#12A2B8" stroke-width="2" stroke-miterlimit="22.926" stroke-linecap="round" stroke-linejoin="round"/>
<path d="M18.0046 39.7715H18.1668" stroke="#12A2B8" stroke-width="2" stroke-miterlimit="22.926" stroke-linecap="round" stroke-linejoin="round"/>
<path d="M8.33325 34.543H20.8399" stroke="white" stroke-width="2" stroke-miterlimit="22.926" stroke-linecap="round" stroke-linejoin="round"/>
<path d="M21.7722 13.3984H39.3063" stroke="white" stroke-width="2" stroke-miterlimit="22.926" stroke-linecap="round" stroke-linejoin="round"/>
</svg>
