<svg width="48" height="48" viewBox="0 0 48 48" fill="none" xmlns="http://www.w3.org/2000/svg">
<path d="M33 5.5551H38.6665C39.2188 5.5551 39.6665 6.00281 39.6665 6.5551V43.0586C39.6665 43.6109 39.2188 44.0586 38.6665 44.0586H10C9.44772 44.0586 9 43.6109 9 43.0586V6.5551C9 6.00281 9.44772 5.5551 10 5.5551H15.5" stroke="white" stroke-width="2" stroke-miterlimit="10"/>
<path d="M24.6111 13.3066H34.8333" stroke="#12A2B8" stroke-width="2" stroke-miterlimit="10"/>
<path d="M24.6111 17.418H29.7222" stroke="#12A2B8" stroke-width="2" stroke-miterlimit="10"/>
<path d="M24.6111 23.5293H34.8333" stroke="#12A2B8" stroke-width="2" stroke-miterlimit="10"/>
<path d="M24.6111 27.6406H29.7222" stroke="#12A2B8" stroke-width="2" stroke-miterlimit="10"/>
<path d="M24.6111 33.752H34.8333" stroke="#12A2B8" stroke-width="2" stroke-miterlimit="10"/>
<path d="M24.6111 37.8613H29.7222" stroke="#12A2B8" stroke-width="2" stroke-miterlimit="10"/>
<path d="M20.2222 17.418C20.2222 17.9703 19.7745 18.418 19.2222 18.418H16.1111C15.5588 18.418 15.1111 17.9703 15.1111 17.418V14.3069C15.1111 13.7546 15.5588 13.3069 16.1111 13.3069H19.2222C19.7745 13.3069 20.2222 13.7546 20.2222 14.3069V17.418Z" stroke="#12A2B8" stroke-width="2" stroke-miterlimit="10"/>
<path d="M33 7C33 7.55228 32.5523 8 32 8H17C16.4477 8 16 7.55228 16 7V4C16 3.44772 16.4477 3 17 3H32C32.5523 3 33 3.44772 33 4V7Z" stroke="white" stroke-width="2" stroke-miterlimit="10"/>
<path d="M20.2222 27.6406C20.2222 28.1929 19.7745 28.6406 19.2222 28.6406H16.1111C15.5588 28.6406 15.1111 28.1929 15.1111 27.6406V24.5295C15.1111 23.9773 15.5588 23.5295 16.1111 23.5295H19.2222C19.7745 23.5295 20.2222 23.9773 20.2222 24.5295V27.6406Z" stroke="#12A2B8" stroke-width="2" stroke-miterlimit="10"/>
<path d="M20.2222 37.8613C20.2222 38.4136 19.7745 38.8613 19.2222 38.8613H16.1111C15.5588 38.8613 15.1111 38.4136 15.1111 37.8613V34.7502C15.1111 34.198 15.5588 33.7502 16.1111 33.7502H19.2222C19.7745 33.7502 20.2222 34.198 20.2222 34.7502V37.8613Z" stroke="#12A2B8" stroke-width="2" stroke-miterlimit="10"/>
</svg>
