<svg width="49" height="48" viewBox="0 0 49 48" fill="none" xmlns="http://www.w3.org/2000/svg">
<path d="M9.64697 24.3359V5.00116C9.64697 4.44888 10.0947 4.00116 10.647 4.00116H32.4287" stroke="white" stroke-width="2" stroke-miterlimit="10"/>
<path d="M5.8501 20.539L8.93994 23.6288C9.33047 24.0194 9.96363 24.0194 10.3542 23.6288L13.444 20.539" stroke="white" stroke-width="2" stroke-miterlimit="10"/>
<path d="M32.4287 34.5447V43.6699C32.4287 44.2222 31.981 44.6699 31.4287 44.6699H8.38135" stroke="white" stroke-width="2" stroke-miterlimit="10"/>
<path d="M36.2255 38.3418L33.1356 35.252C32.7451 34.8614 32.112 34.8614 31.7214 35.252L28.6316 38.3418" stroke="white" stroke-width="2" stroke-miterlimit="10"/>
<path d="M19.7722 38.6074C19.7722 39.1597 19.3245 39.6074 18.7722 39.6074H5.5C4.94771 39.6074 4.5 39.1597 4.5 38.6074V30.3978C4.5 29.8456 4.94772 29.3978 5.5 29.3978H18.7722C19.3245 29.3978 19.7722 29.8456 19.7722 30.3978V38.6074Z" stroke="#12A2B8" stroke-width="2" stroke-miterlimit="10"/>
<path d="M45.1696 28.3984C45.1696 28.9507 44.7219 29.3984 44.1696 29.3984H20.7722C20.2199 29.3984 19.7722 28.9507 19.7722 28.3984V10.148C19.7722 9.59575 20.2199 9.14803 20.7722 9.14803H44.1696C44.7219 9.14803 45.1696 9.59575 45.1696 10.148V28.3984Z" stroke="#12A2B8" stroke-width="2" stroke-miterlimit="10"/>
<path d="M19.7722 14.2109H45.1696" stroke="#12A2B8" stroke-width="2" stroke-miterlimit="10"/>
<path d="M28.6316 19.2734H41.3725" stroke="#12A2B8" stroke-width="2" stroke-miterlimit="10"/>
<path d="M28.6316 24.3359H41.3725" stroke="#12A2B8" stroke-width="2" stroke-miterlimit="10"/>
<path d="M23.5691 19.2734H26.1004" stroke="#12A2B8" stroke-width="2" stroke-miterlimit="10"/>
<path d="M23.5691 24.3359H26.1004" stroke="#12A2B8" stroke-width="2" stroke-miterlimit="10"/>
</svg>
