<svg width="49" height="48" viewBox="0 0 49 48" fill="none" xmlns="http://www.w3.org/2000/svg">
<path d="M34.5201 18.7208C36.4639 18.7208 38.0396 17.145 38.0396 15.2013C38.0396 13.2575 36.4639 11.6817 34.5201 11.6817H34.5061C34.3378 9.51202 32.5252 7.80343 30.3123 7.80343C30.312 7.80343 30.3117 7.80343 30.3114 7.80343C29.3367 5.56514 27.1054 4 24.5083 4C21.911 4 19.6797 5.56514 18.7051 7.8036C18.7033 7.8036 18.7015 7.80343 18.6997 7.80343C16.4868 7.80343 14.6742 9.51202 14.506 11.6817H14.4919C12.5482 11.6817 10.9724 13.2575 10.9724 15.2013C10.9724 17.145 12.5482 18.7208 14.4919 18.7208H34.5201Z" stroke="#12A2B8" stroke-width="2" stroke-miterlimit="10"/>
<path d="M11.6026 13.1895H5.5C4.94772 13.1895 4.5 13.6372 4.5 14.1895V37.4254C4.5 37.9777 4.94772 38.4254 5.5 38.4254H43.5123C44.0646 38.4254 44.5123 37.9777 44.5123 37.4254V14.1895C44.5123 13.6372 44.0646 13.1895 43.5123 13.1895H37.4098" stroke="white" stroke-width="2" stroke-miterlimit="10"/>
<path d="M10.2278 44H38.7849" stroke="white" stroke-width="2" stroke-miterlimit="10"/>
<path d="M16.2041 38.4258V43.9983" stroke="white" stroke-width="2" stroke-miterlimit="10"/>
<path d="M32.8076 38.4258V43.9983" stroke="white" stroke-width="2" stroke-miterlimit="10"/>
<path d="M4.5 33.4453H44.5123" stroke="white" stroke-width="2" stroke-miterlimit="10"/>
<path d="M24.5061 18.7188V28.1953" stroke="#12A2B8" stroke-width="2" stroke-miterlimit="10"/>
<path d="M19.5249 18.7188V26.95H15.374" stroke="#12A2B8" stroke-width="2" stroke-miterlimit="10"/>
<path d="M29.4873 18.7188V26.95H33.6382" stroke="#12A2B8" stroke-width="2" stroke-miterlimit="10"/>
</svg>
