<svg width="49" height="48" viewBox="0 0 49 48" fill="none" xmlns="http://www.w3.org/2000/svg">
<path d="M31.3904 24.1602H37.1399" stroke="#12A2B8" stroke-width="2" stroke-miterlimit="22.9256" stroke-linecap="round" stroke-linejoin="round"/>
<path d="M42.6667 22.0977H38.1853V26.8593H42.6667V22.0977Z" stroke="#12A2B8" stroke-width="2" stroke-miterlimit="22.9256" stroke-linecap="round" stroke-linejoin="round"/>
<path d="M42.6667 12.0977H38.1853V16.8593H42.6667V12.0977Z" stroke="#12A2B8" stroke-width="2" stroke-miterlimit="22.9256" stroke-linecap="round" stroke-linejoin="round"/>
<path d="M42.6667 32.0977H38.1853V36.8593H42.6667V32.0977Z" stroke="#12A2B8" stroke-width="2" stroke-miterlimit="22.9256" stroke-linecap="round" stroke-linejoin="round"/>
<path d="M31.5813 14.4805H37.1401" stroke="#12A2B8" stroke-width="2" stroke-miterlimit="22.9256" stroke-linecap="round" stroke-linejoin="round"/>
<path d="M31.5813 34.4766H37.1401" stroke="#12A2B8" stroke-width="2" stroke-miterlimit="22.9256" stroke-linecap="round" stroke-linejoin="round"/>
<path d="M31.0908 28.7852V36.599C31.0908 36.7707 31.0908 36.8812 31.0908 37.1698C31.0908 39.838 25.6249 42.0009 18.8825 42.0009C12.1399 42.0009 6.67407 39.8379 6.67407 37.1698C6.67407 36.8814 6.67415 36.8512 6.67415 36.599V28.7852" stroke="white" stroke-width="2" stroke-miterlimit="22.9256" stroke-linecap="round" stroke-linejoin="round"/>
<path d="M31.0908 20.0156V27.8295C31.0908 28.0011 31.0908 28.1117 31.0908 28.4003C31.0908 31.0684 25.6249 33.2314 18.8825 33.2314C12.1399 33.2314 6.67407 31.0684 6.67407 28.4003C6.67407 28.1119 6.67415 28.0817 6.67415 27.8295V20.0156" stroke="white" stroke-width="2" stroke-miterlimit="22.9256" stroke-linecap="round" stroke-linejoin="round"/>
<path d="M31.0908 11.2109V19.0248C31.0908 19.1965 31.0908 19.307 31.0908 19.5956C31.0908 22.2638 25.6249 24.4267 18.8825 24.4267C12.1399 24.4267 6.67407 22.2638 6.67407 19.5956C6.67407 19.3072 6.67415 19.277 6.67415 19.0248V11.2109" stroke="white" stroke-width="2" stroke-miterlimit="22.9256" stroke-linecap="round" stroke-linejoin="round"/>
<path d="M18.8751 15.6623C25.6175 15.6623 31.0834 13.4993 31.0834 10.8312C31.0834 8.16299 25.6175 6 18.8751 6C12.1326 6 6.66675 8.16299 6.66675 10.8312C6.66675 13.4993 12.1326 15.6623 18.8751 15.6623Z" stroke="white" stroke-width="2" stroke-miterlimit="22.9256" stroke-linecap="round" stroke-linejoin="round"/>
</svg>
