<svg width="40" height="40" viewBox="0 0 40 40" fill="none" xmlns="http://www.w3.org/2000/svg">
<path d="M16.5936 22.4004H8.04306C7.48749 22.4004 7.03711 22.8508 7.03711 23.4063V31.9569C7.03711 32.5125 7.48749 32.9628 8.04306 32.9628H16.5936C17.1492 32.9628 17.5996 32.5125 17.5996 31.9569V23.4063C17.5996 22.8508 17.1492 22.4004 16.5936 22.4004Z" stroke="white" stroke-width="2" stroke-linecap="round" stroke-linejoin="round"/>
<path d="M31.9569 22.4004H23.4063C22.8508 22.4004 22.4004 22.8508 22.4004 23.4063V31.9569C22.4004 32.5125 22.8508 32.9628 23.4063 32.9628H31.9569C32.5125 32.9628 32.9628 32.5125 32.9628 31.9569V23.4063C32.9628 22.8508 32.5125 22.4004 31.9569 22.4004Z" stroke="white" stroke-width="2" stroke-linecap="round" stroke-linejoin="round"/>
<path d="M24.2753 7.03711H15.7247C15.1691 7.03711 14.7188 7.48749 14.7188 8.04306V16.5936C14.7188 17.1492 15.1691 17.5996 15.7247 17.5996H24.2753C24.8308 17.5996 25.2812 17.1492 25.2812 16.5936V8.04306C25.2812 7.48749 24.8308 7.03711 24.2753 7.03711Z" stroke="white" stroke-width="2" stroke-linecap="round" stroke-linejoin="round"/>
</svg>
