<svg width="40" height="40" viewBox="0 0 40 40" fill="none" xmlns="http://www.w3.org/2000/svg">
<path d="M20 7.16699C22.5382 7.16699 25.0195 7.91966 27.1299 9.32983C29.2404 10.74 30.8853 12.7443 31.8566 15.0893C32.8279 17.4343 33.0821 20.0147 32.5869 22.5042C32.0917 24.9936 30.8694 27.2803 29.0747 29.0751C27.2799 30.8699 24.9931 32.0922 22.5037 32.5874C20.0142 33.0826 17.4339 32.8284 15.0888 31.8571C12.7438 30.8857 10.7395 29.2408 9.32935 27.1304C7.91918 25.0199 7.16651 22.5387 7.16651 20.0005C7.16244 16.3241 8.57692 12.7879 11.1153 10.1286" stroke="white" stroke-width="2" stroke-linecap="round" stroke-linejoin="round"/>
<path d="M7.1665 11.1141L11.1153 10.127L12.1025 14.0757" stroke="white" stroke-width="2" stroke-linecap="round" stroke-linejoin="round"/>
<path d="M20 13.0898V20.9874L25.1334 23.5541" stroke="white" stroke-width="2" stroke-linecap="round" stroke-linejoin="round"/>
</svg>
